<?xml version="1.0" encoding="UTF-8" standalone="no"?>
<!-- Created with Inkscape (http://www.inkscape.org/) -->

<svg
   width="210mm"
   height="297mm"
   viewBox="0 0 210 297"
   version="1.1"
   id="svg5"
   xml:space="preserve"
   inkscape:version="1.2 (dc2aedaf03, 2022-05-15)"
   sodipodi:docname="DrV Logo.svg"
   xmlns:inkscape="http://www.inkscape.org/namespaces/inkscape"
   xmlns:sodipodi="http://sodipodi.sourceforge.net/DTD/sodipodi-0.dtd"
   xmlns="http://www.w3.org/2000/svg"
   xmlns:svg="http://www.w3.org/2000/svg"><sodipodi:namedview
     id="namedview7"
     pagecolor="#505050"
     bordercolor="#eeeeee"
     borderopacity="1"
     inkscape:showpageshadow="0"
     inkscape:pageopacity="0"
     inkscape:pagecheckerboard="0"
     inkscape:deskcolor="#505050"
     inkscape:document-units="mm"
     showgrid="false"
     inkscape:zoom="1.4245975"
     inkscape:cx="155.13154"
     inkscape:cy="410.64231"
     inkscape:window-width="1316"
     inkscape:window-height="705"
     inkscape:window-x="-8"
     inkscape:window-y="-8"
     inkscape:window-maximized="1"
     inkscape:current-layer="svg5"><inkscape:page
       x="0"
       y="0"
       width="210"
       height="297"
       id="page1653" /><inkscape:page
       x="220"
       y="0"
       width="176.38889"
       height="176.3889"
       id="page1655" /></sodipodi:namedview><defs
     id="defs2"><clipPath
       clipPathUnits="userSpaceOnUse"
       id="clipPath150"><path
         d="M 0,500 H 500 V 0 H 0 Z"
         id="path148" /></clipPath><clipPath
       clipPathUnits="userSpaceOnUse"
       id="clipPath158"><path
         d="M 73.1463,208.771 H 211.65 V 88.8536 H 73.1463 Z"
         id="path156" /></clipPath><clipPath
       clipPathUnits="userSpaceOnUse"
       id="clipPath182"><path
         d="M 84.512,203.939 C 75.788,198.41 73.199,186.854 78.73,178.13 v 0 l 48.908,-77.146 c 5.531,-8.722 17.086,-11.312 25.809,-5.781 v 0 c 8.724,5.53 11.312,17.086 5.782,25.81 v 0 l -48.908,77.145 c -3.562,5.618 -9.62,8.691 -15.813,8.691 v 0 c -3.424,-10e-4 -6.89,-0.941 -9.996,-2.91"
         id="path180" /></clipPath><linearGradient
       x1="0"
       y1="0"
       x2="1"
       y2="0"
       gradientUnits="userSpaceOnUse"
       gradientTransform="matrix(-28.209837,51.782436,51.782436,28.209837,152.20273,88.585937)"
       spreadMethod="pad"
       id="linearGradient192"><stop
         style="stop-opacity:1;stop-color:#ff4600"
         offset="0"
         id="stop188" /><stop
         style="stop-opacity:1;stop-color:#ffb800"
         offset="1"
         id="stop190" /></linearGradient><clipPath
       clipPathUnits="userSpaceOnUse"
       id="clipPath202"><path
         d="M 84.512,203.939 C 75.788,198.41 73.199,186.854 78.73,178.13 v 0 l 16.985,-26.791 c 11.678,4.894 23.39,9.705 35.132,14.441 v 0 l -20.526,32.378 c -3.561,5.617 -9.621,8.69 -15.813,8.691 v 0 c -3.425,0 -6.89,-0.94 -9.996,-2.91"
         id="path200" /></clipPath><linearGradient
       x1="0"
       y1="0"
       x2="1"
       y2="0"
       gradientUnits="userSpaceOnUse"
       gradientTransform="matrix(-13.596774,31.272579,31.272579,13.596774,117.33554,142.81325)"
       spreadMethod="pad"
       id="linearGradient212"><stop
         style="stop-opacity:1;stop-color:#ff4600"
         offset="0"
         id="stop208" /><stop
         style="stop-opacity:1;stop-color:#ffb800"
         offset="1"
         id="stop210" /></linearGradient><clipPath
       clipPathUnits="userSpaceOnUse"
       id="clipPath222"><path
         d="M 0,500 H 500 V 0 H 0 Z"
         id="path220" /></clipPath><clipPath
       clipPathUnits="userSpaceOnUse"
       id="clipPath234"><path
         d="m 174.118,197.572 -20.982,-36.336 c -5.208,-8.921 -2.198,-20.373 6.722,-25.581 v 0 c 8.92,-5.207 20.373,-2.197 25.581,6.723 v 0 l 20.982,36.337 c 5.208,8.92 2.198,20.372 -6.723,25.58 v 0 c -2.965,1.731 -6.209,2.554 -9.411,2.553 v 0 c -6.431,0 -12.692,-3.321 -16.169,-9.276"
         id="path232" /></clipPath><linearGradient
       x1="0"
       y1="0"
       x2="1"
       y2="0"
       gradientUnits="userSpaceOnUse"
       gradientTransform="matrix(23.186167,42.507973,42.507973,-23.186167,157.88817,129.8429)"
       spreadMethod="pad"
       id="linearGradient244"><stop
         style="stop-opacity:1;stop-color:#ff4600"
         offset="0"
         id="stop240" /><stop
         style="stop-opacity:1;stop-color:#ffb800"
         offset="1"
         id="stop242" /></linearGradient><clipPath
       clipPathUnits="userSpaceOnUse"
       id="clipPath254"><path
         d="m 174.118,197.572 -10.966,-18.99 c 8.222,3.201 37.787,14.425 44.34,16.856 v 0 c -1.517,3.591 -4.167,6.74 -7.794,8.857 v 0 c -2.964,1.73 -6.21,2.553 -9.412,2.554 v 0 c -6.432,0 -12.691,-3.32 -16.168,-9.277"
         id="path252" /></clipPath><linearGradient
       x1="0"
       y1="0"
       x2="1"
       y2="0"
       gradientUnits="userSpaceOnUse"
       gradientTransform="matrix(0,40.171394,40.171394,0,185.3223,162.90063)"
       spreadMethod="pad"
       id="linearGradient264"><stop
         style="stop-opacity:1;stop-color:#ff4600"
         offset="0"
         id="stop260" /><stop
         style="stop-opacity:1;stop-color:#ffb800"
         offset="1"
         id="stop262" /></linearGradient><clipPath
       clipPathUnits="userSpaceOnUse"
       id="clipPath274"><path
         d="M 0,500 H 500 V 0 H 0 Z"
         id="path272" /></clipPath><clipPath
       clipPathUnits="userSpaceOnUse"
       id="clipPath282"><path
         d="m 169.686,198.389 h 25.346 v -25.346 h -25.346 z"
         id="path280" /></clipPath><clipPath
       clipPathUnits="userSpaceOnUse"
       id="clipPath286"><path
         d="m 195.032,185.716 c 0,-6.999 -5.674,-12.673 -12.673,-12.673 -6.999,0 -12.672,5.674 -12.672,12.673 0,6.999 5.673,12.673 12.672,12.673 6.999,0 12.673,-5.674 12.673,-12.673"
         id="path284" /></clipPath><clipPath
       clipPathUnits="userSpaceOnUse"
       id="clipPath290"><path
         d="M -32768,32767 H 32767 V -32768 H -32768 Z"
         id="path288" /></clipPath><radialGradient
       fx="0"
       fy="0"
       cx="0"
       cy="0"
       r="1"
       gradientUnits="userSpaceOnUse"
       gradientTransform="matrix(12.673008,0,0,-12.673008,182.35942,185.71564)"
       spreadMethod="pad"
       id="radialGradient298"><stop
         style="stop-opacity:1;stop-color:#ffffff"
         offset="0"
         id="stop292" /><stop
         style="stop-opacity:0;stop-color:#ffffff"
         offset="0.55847514"
         id="stop294" /><stop
         style="stop-opacity:0;stop-color:#ffffff"
         offset="1"
         id="stop296" /></radialGradient><mask
       maskUnits="userSpaceOnUse"
       x="0"
       y="0"
       width="1"
       height="1"
       id="mask300"><g
         id="g310"><g
           clip-path="url(#clipPath290)"
           id="g308"><g
             id="g306"><g
               id="g304"><path
                 d="M -32768,32767 H 32767 V -32768 H -32768 Z"
                 style="fill:url(#radialGradient298);stroke:none"
                 id="path302" /></g></g></g></g></mask><radialGradient
       fx="0"
       fy="0"
       cx="0"
       cy="0"
       r="1"
       gradientUnits="userSpaceOnUse"
       gradientTransform="matrix(12.673008,0,0,-12.673008,182.35942,185.71564)"
       spreadMethod="pad"
       id="radialGradient318"><stop
         style="stop-opacity:1;stop-color:#fff379"
         offset="0"
         id="stop312" /><stop
         style="stop-opacity:1;stop-color:#fff379"
         offset="0.55847514"
         id="stop314" /><stop
         style="stop-opacity:1;stop-color:#fff379"
         offset="1"
         id="stop316" /></radialGradient><clipPath
       clipPathUnits="userSpaceOnUse"
       id="clipPath344"><path
         d="M 97.4294,169.975 H 122.5 V 144.904 H 97.4294 Z"
         id="path342" /></clipPath><clipPath
       clipPathUnits="userSpaceOnUse"
       id="clipPath348"><path
         d="m 122.5,157.439 c 0,-6.922 -5.612,-12.535 -12.535,-12.535 -6.923,0 -12.536,5.613 -12.536,12.535 0,6.924 5.613,12.537 12.536,12.537 6.923,0 12.535,-5.613 12.535,-12.537"
         id="path346" /></clipPath><clipPath
       clipPathUnits="userSpaceOnUse"
       id="clipPath352"><path
         d="M -32768,32767 H 32767 V -32768 H -32768 Z"
         id="path350" /></clipPath><radialGradient
       fx="0"
       fy="0"
       cx="0"
       cy="0"
       r="1"
       gradientUnits="userSpaceOnUse"
       gradientTransform="matrix(12.535438,0,0,-12.535438,109.96487,157.43973)"
       spreadMethod="pad"
       id="radialGradient360"><stop
         style="stop-opacity:1;stop-color:#ffffff"
         offset="0"
         id="stop354" /><stop
         style="stop-opacity:0;stop-color:#ffffff"
         offset="0.55847514"
         id="stop356" /><stop
         style="stop-opacity:0;stop-color:#ffffff"
         offset="1"
         id="stop358" /></radialGradient><mask
       maskUnits="userSpaceOnUse"
       x="0"
       y="0"
       width="1"
       height="1"
       id="mask362"><g
         id="g372"><g
           clip-path="url(#clipPath352)"
           id="g370"><g
             id="g368"><g
               id="g366"><path
                 d="M -32768,32767 H 32767 V -32768 H -32768 Z"
                 style="fill:url(#radialGradient360);stroke:none"
                 id="path364" /></g></g></g></g></mask><radialGradient
       fx="0"
       fy="0"
       cx="0"
       cy="0"
       r="1"
       gradientUnits="userSpaceOnUse"
       gradientTransform="matrix(12.535438,0,0,-12.535438,109.96487,157.43973)"
       spreadMethod="pad"
       id="radialGradient380"><stop
         style="stop-opacity:1;stop-color:#fff379"
         offset="0"
         id="stop374" /><stop
         style="stop-opacity:1;stop-color:#fff379"
         offset="0.55847514"
         id="stop376" /><stop
         style="stop-opacity:1;stop-color:#fff379"
         offset="1"
         id="stop378" /></radialGradient><clipPath
       clipPathUnits="userSpaceOnUse"
       id="clipPath410"><path
         d="m 129.998,193.131 c 0,-7.576 6.141,-13.717 13.718,-13.717 v 0 c 7.576,0 13.717,6.141 13.717,13.717 v 0 c 0,7.576 -6.141,13.718 -13.717,13.718 v 0 c -7.577,0 -13.718,-6.142 -13.718,-13.718"
         id="path408" /></clipPath><linearGradient
       x1="0"
       y1="0"
       x2="1"
       y2="0"
       gradientUnits="userSpaceOnUse"
       gradientTransform="matrix(0,22.584307,22.584307,0,143.71559,173.388)"
       spreadMethod="pad"
       id="linearGradient420"><stop
         style="stop-opacity:1;stop-color:#ff4600"
         offset="0"
         id="stop416" /><stop
         style="stop-opacity:1;stop-color:#ffb800"
         offset="1"
         id="stop418" /></linearGradient><clipPath
       clipPathUnits="userSpaceOnUse"
       id="clipPath430"><path
         d="M 0,500 H 500 V 0 H 0 Z"
         id="path428" /></clipPath><clipPath
       clipPathUnits="userSpaceOnUse"
       id="clipPath442"><path
         d="m 125.241,215.121 h 25.346 v -25.346 h -25.346 z"
         id="path440" /></clipPath><clipPath
       clipPathUnits="userSpaceOnUse"
       id="clipPath446"><path
         d="m 150.587,202.448 c 0,-6.999 -5.674,-12.673 -12.673,-12.673 -6.999,0 -12.673,5.674 -12.673,12.673 0,6.999 5.674,12.673 12.673,12.673 6.999,0 12.673,-5.674 12.673,-12.673"
         id="path444" /></clipPath><clipPath
       clipPathUnits="userSpaceOnUse"
       id="clipPath450"><path
         d="M -32768,32767 H 32767 V -32768 H -32768 Z"
         id="path448" /></clipPath><radialGradient
       fx="0"
       fy="0"
       cx="0"
       cy="0"
       r="1"
       gradientUnits="userSpaceOnUse"
       gradientTransform="matrix(12.673008,0,0,-12.673008,137.91396,202.44849)"
       spreadMethod="pad"
       id="radialGradient458"><stop
         style="stop-opacity:1;stop-color:#ffffff"
         offset="0"
         id="stop452" /><stop
         style="stop-opacity:0;stop-color:#ffffff"
         offset="0.55847514"
         id="stop454" /><stop
         style="stop-opacity:0;stop-color:#ffffff"
         offset="1"
         id="stop456" /></radialGradient><mask
       maskUnits="userSpaceOnUse"
       x="0"
       y="0"
       width="1"
       height="1"
       id="mask460"><g
         id="g470"><g
           clip-path="url(#clipPath450)"
           id="g468"><g
             id="g466"><g
               id="g464"><path
                 d="M -32768,32767 H 32767 V -32768 H -32768 Z"
                 style="fill:url(#radialGradient458);stroke:none"
                 id="path462" /></g></g></g></g></mask><radialGradient
       fx="0"
       fy="0"
       cx="0"
       cy="0"
       r="1"
       gradientUnits="userSpaceOnUse"
       gradientTransform="matrix(12.673008,0,0,-12.673008,137.91396,202.44849)"
       spreadMethod="pad"
       id="radialGradient478"><stop
         style="stop-opacity:1;stop-color:#fff379"
         offset="0"
         id="stop472" /><stop
         style="stop-opacity:1;stop-color:#fff379"
         offset="0.55847514"
         id="stop474" /><stop
         style="stop-opacity:1;stop-color:#fff379"
         offset="1"
         id="stop476" /></radialGradient><clipPath
       clipPathUnits="userSpaceOnUse"
       id="clipPath512"><path
         d="M 0,500 H 500 V 0 H 0 Z"
         id="path510" /></clipPath><clipPath
       clipPathUnits="userSpaceOnUse"
       id="clipPath520"><path
         d="m 306.21,98.2201 h 83.878 V 82.6147 H 306.21 Z"
         id="path518" /></clipPath><clipPath
       clipPathUnits="userSpaceOnUse"
       id="clipPath524"><path
         d="m 390.088,90.417 c 0,-4.309 -18.776,-7.803 -41.939,-7.803 -23.162,0 -41.939,3.494 -41.939,7.803 0,4.31 18.777,7.803 41.939,7.803 23.163,0 41.939,-3.493 41.939,-7.803"
         id="path522" /></clipPath><clipPath
       clipPathUnits="userSpaceOnUse"
       id="clipPath528"><path
         d="M -32768,32767 H 32767 V -32768 H -32768 Z"
         id="path526" /></clipPath><radialGradient
       fx="0"
       fy="0"
       cx="0"
       cy="0"
       r="1"
       gradientUnits="userSpaceOnUse"
       gradientTransform="matrix(40.108845,0,0,-6.3940706,348.14914,90.417389)"
       spreadMethod="pad"
       id="radialGradient534"><stop
         style="stop-opacity:1;stop-color:#ffffff"
         offset="0"
         id="stop530" /><stop
         style="stop-opacity:0;stop-color:#ffffff"
         offset="1"
         id="stop532" /></radialGradient><mask
       maskUnits="userSpaceOnUse"
       x="0"
       y="0"
       width="1"
       height="1"
       id="mask536"><g
         id="g546"><g
           clip-path="url(#clipPath528)"
           id="g544"><g
             id="g542"><g
               id="g540"><path
                 d="M -32768,32767 H 32767 V -32768 H -32768 Z"
                 style="fill:url(#radialGradient534);stroke:none"
                 id="path538" /></g></g></g></g></mask><radialGradient
       fx="0"
       fy="0"
       cx="0"
       cy="0"
       r="1"
       gradientUnits="userSpaceOnUse"
       gradientTransform="matrix(40.108845,0,0,-6.3940706,348.14914,90.417389)"
       spreadMethod="pad"
       id="radialGradient552"><stop
         style="stop-opacity:1;stop-color:#0c173e"
         offset="0"
         id="stop548" /><stop
         style="stop-opacity:1;stop-color:#0c173e"
         offset="1"
         id="stop550" /></radialGradient><clipPath
       clipPathUnits="userSpaceOnUse"
       id="clipPath578"><path
         d="m 282.677,155.889 c 0,-36.159 29.313,-65.472 65.472,-65.472 v 0 c 36.159,0 65.471,29.313 65.471,65.472 v 0 c 0,36.158 -29.312,65.471 -65.471,65.471 v 0 c -36.159,0 -65.472,-29.313 -65.472,-65.471"
         id="path576" /></clipPath><linearGradient
       x1="0"
       y1="0"
       x2="1"
       y2="0"
       gradientUnits="userSpaceOnUse"
       gradientTransform="matrix(0,156.81294,156.81294,0,348.14914,34.999218)"
       spreadMethod="pad"
       id="linearGradient588"><stop
         style="stop-opacity:1;stop-color:#ff4600"
         offset="0"
         id="stop584" /><stop
         style="stop-opacity:1;stop-color:#ffb800"
         offset="1"
         id="stop586" /></linearGradient><clipPath
       clipPathUnits="userSpaceOnUse"
       id="clipPath598"><path
         d="m 282.677,155.889 c 0,-6.194 0.879,-12.179 2.486,-17.859 v 0 c 10.778,3.708 21.559,7.403 32.347,11.079 v 0 c 30.471,10.387 60.98,20.665 91.493,30.926 v 0 c -9.613,24.205 -33.226,41.325 -60.854,41.325 v 0 c -36.159,0 -65.472,-29.313 -65.472,-65.471"
         id="path596" /></clipPath><linearGradient
       x1="0"
       y1="0"
       x2="1"
       y2="0"
       gradientUnits="userSpaceOnUse"
       gradientTransform="matrix(15.091421,-85.697716,-85.697716,-15.091421,329.91461,255.5448)"
       spreadMethod="pad"
       id="linearGradient608"><stop
         style="stop-opacity:1;stop-color:#ff4600"
         offset="0"
         id="stop604" /><stop
         style="stop-opacity:1;stop-color:#ffb800"
         offset="1"
         id="stop606" /></linearGradient><clipPath
       clipPathUnits="userSpaceOnUse"
       id="clipPath618"><path
         d="M 0,500 H 500 V 0 H 0 Z"
         id="path616" /></clipPath><clipPath
       clipPathUnits="userSpaceOnUse"
       id="clipPath634"><path
         d="m 306.21,179.886 h 83.878 v -78.82 H 306.21 Z"
         id="path632" /></clipPath><clipPath
       clipPathUnits="userSpaceOnUse"
       id="clipPath654"><path
         d="m 306.21,183.437 h 83.878 V 142.711 H 306.21 Z"
         id="path652" /></clipPath><clipPath
       clipPathUnits="userSpaceOnUse"
       id="clipPath678"><path
         d="M 0,500 H 500 V 0 H 0 Z"
         id="path676" /></clipPath><clipPath
       clipPathUnits="userSpaceOnUse"
       id="clipPath686"><path
         d="m 107.446,347.814 h 69.685 v -12.965 h -69.685 z"
         id="path684" /></clipPath><clipPath
       clipPathUnits="userSpaceOnUse"
       id="clipPath690"><path
         d="m 177.131,341.331 c 0,-3.58 -15.599,-6.482 -34.842,-6.482 -19.244,0 -34.843,2.902 -34.843,6.482 0,3.58 15.599,6.482 34.843,6.482 19.243,0 34.842,-2.902 34.842,-6.482"
         id="path688" /></clipPath><clipPath
       clipPathUnits="userSpaceOnUse"
       id="clipPath694"><path
         d="M -32768,32767 H 32767 V -32768 H -32768 Z"
         id="path692" /></clipPath><radialGradient
       fx="0"
       fy="0"
       cx="0"
       cy="0"
       r="1"
       gradientUnits="userSpaceOnUse"
       gradientTransform="matrix(33.322144,0,0,-5.3121486,142.2887,341.33121)"
       spreadMethod="pad"
       id="radialGradient700"><stop
         style="stop-opacity:1;stop-color:#ffffff"
         offset="0"
         id="stop696" /><stop
         style="stop-opacity:0;stop-color:#ffffff"
         offset="1"
         id="stop698" /></radialGradient><mask
       maskUnits="userSpaceOnUse"
       x="0"
       y="0"
       width="1"
       height="1"
       id="mask702"><g
         id="g712"><g
           clip-path="url(#clipPath694)"
           id="g710"><g
             id="g708"><g
               id="g706"><path
                 d="M -32768,32767 H 32767 V -32768 H -32768 Z"
                 style="fill:url(#radialGradient700);stroke:none"
                 id="path704" /></g></g></g></g></mask><radialGradient
       fx="0"
       fy="0"
       cx="0"
       cy="0"
       r="1"
       gradientUnits="userSpaceOnUse"
       gradientTransform="matrix(33.322144,0,0,-5.3121486,142.2887,341.33121)"
       spreadMethod="pad"
       id="radialGradient718"><stop
         style="stop-opacity:1;stop-color:#0c173e"
         offset="0"
         id="stop714" /><stop
         style="stop-opacity:1;stop-color:#0c173e"
         offset="1"
         id="stop716" /></radialGradient><clipPath
       clipPathUnits="userSpaceOnUse"
       id="clipPath744"><path
         d="m 132.51,437.66 -8.433,-23.439 13.295,-35.405 28.093,73.444 c -3.017,1.164 -6.121,1.716 -9.173,1.717 v 0 c -10.229,0 -19.878,-6.201 -23.782,-16.317"
         id="path742" /></clipPath><linearGradient
       x1="0"
       y1="0"
       x2="1"
       y2="0"
       gradientUnits="userSpaceOnUse"
       gradientTransform="matrix(18.30612,56.896877,56.896877,-18.30612,126.10281,375.21799)"
       spreadMethod="pad"
       id="linearGradient754"><stop
         style="stop-opacity:1;stop-color:#ff4600"
         offset="0"
         id="stop750" /><stop
         style="stop-opacity:1;stop-color:#ffb800"
         offset="1"
         id="stop752" /></linearGradient><clipPath
       clipPathUnits="userSpaceOnUse"
       id="clipPath764"><path
         d="M 0,500 H 500 V 0 H 0 Z"
         id="path762" /></clipPath><clipPath
       clipPathUnits="userSpaceOnUse"
       id="clipPath776"><path
         d="m 124.077,432.429 h 20.191 v -53.613 h -20.191 z"
         id="path774" /></clipPath><clipPath
       clipPathUnits="userSpaceOnUse"
       id="clipPath780"><path
         d="m 130.627,432.429 -6.55,-18.208 13.296,-35.405 6.896,17.698 z"
         id="path778" /></clipPath><clipPath
       clipPathUnits="userSpaceOnUse"
       id="clipPath784"><path
         d="M -32768,32767 H 32767 V -32768 H -32768 Z"
         id="path782" /></clipPath><linearGradient
       x1="0"
       y1="0"
       x2="1"
       y2="0"
       gradientUnits="userSpaceOnUse"
       gradientTransform="matrix(10.567936,58.576557,58.576557,-10.567936,126.316,361.81982)"
       spreadMethod="pad"
       id="linearGradient790"><stop
         style="stop-opacity:1;stop-color:#ffffff"
         offset="0"
         id="stop786" /><stop
         style="stop-opacity:0;stop-color:#ffffff"
         offset="1"
         id="stop788" /></linearGradient><mask
       maskUnits="userSpaceOnUse"
       x="0"
       y="0"
       width="1"
       height="1"
       id="mask792"><g
         id="g802"><g
           clip-path="url(#clipPath784)"
           id="g800"><g
             id="g798"><g
               id="g796"><path
                 d="M -32768,32767 H 32767 V -32768 H -32768 Z"
                 style="fill:url(#linearGradient790);stroke:none"
                 id="path794" /></g></g></g></g></mask><linearGradient
       x1="0"
       y1="0"
       x2="1"
       y2="0"
       gradientUnits="userSpaceOnUse"
       gradientTransform="matrix(10.567936,58.576557,58.576557,-10.567936,126.316,361.81982)"
       spreadMethod="pad"
       id="linearGradient808"><stop
         style="stop-opacity:1;stop-color:#ff4600"
         offset="0"
         id="stop804" /><stop
         style="stop-opacity:1;stop-color:#ff4600"
         offset="1"
         id="stop806" /></linearGradient><clipPath
       clipPathUnits="userSpaceOnUse"
       id="clipPath834"><path
         d="m 165.456,437.728 -29.499,-77.762 c 0,0 -2.933,-7.94 5.792,-12.302 v 0 c 8.726,-4.363 14.532,1.578 14.532,1.578 v 0 l 3.053,4.294 39.163,98.599 c -3.059,1.201 -6.212,1.771 -9.311,1.771 v 0 c -10.175,10e-4 -19.786,-6.134 -23.73,-16.178"
         id="path832" /></clipPath><linearGradient
       x1="0"
       y1="0"
       x2="1"
       y2="0"
       gradientUnits="userSpaceOnUse"
       gradientTransform="matrix(27.801165,84.706673,84.706673,-27.801165,144.19398,335.87448)"
       spreadMethod="pad"
       id="linearGradient844"><stop
         style="stop-opacity:1;stop-color:#ff4600"
         offset="0"
         id="stop840" /><stop
         style="stop-opacity:1;stop-color:#ffb800"
         offset="1"
         id="stop842" /></linearGradient><clipPath
       clipPathUnits="userSpaceOnUse"
       id="clipPath854"><path
         d="M 0,500 H 500 V 0 H 0 Z"
         id="path852" /></clipPath><clipPath
       clipPathUnits="userSpaceOnUse"
       id="clipPath866"><path
         d="m 135.483,391.469 h 26.334 v -45.406 h -26.334 z"
         id="path864" /></clipPath><clipPath
       clipPathUnits="userSpaceOnUse"
       id="clipPath870"><path
         d="m 159.334,353.537 2.483,6.251 -13.91,31.681 -11.95,-31.503 c 0,0 -2.934,-7.94 5.792,-12.302 8.726,-4.363 14.533,1.579 14.533,1.579 z"
         id="path868" /></clipPath><clipPath
       clipPathUnits="userSpaceOnUse"
       id="clipPath874"><path
         d="M -32768,32767 H 32767 V -32768 H -32768 Z"
         id="path872" /></clipPath><linearGradient
       x1="0"
       y1="0"
       x2="1"
       y2="0"
       gradientUnits="userSpaceOnUse"
       gradientTransform="matrix(-0.603882,39.252331,39.252331,0.603882,148.94836,338.89191)"
       spreadMethod="pad"
       id="linearGradient880"><stop
         style="stop-opacity:1;stop-color:#ffffff"
         offset="0"
         id="stop876" /><stop
         style="stop-opacity:0;stop-color:#ffffff"
         offset="1"
         id="stop878" /></linearGradient><mask
       maskUnits="userSpaceOnUse"
       x="0"
       y="0"
       width="1"
       height="1"
       id="mask882"><g
         id="g892"><g
           clip-path="url(#clipPath874)"
           id="g890"><g
             id="g888"><g
               id="g886"><path
                 d="M -32768,32767 H 32767 V -32768 H -32768 Z"
                 style="fill:url(#linearGradient880);stroke:none"
                 id="path884" /></g></g></g></g></mask><linearGradient
       x1="0"
       y1="0"
       x2="1"
       y2="0"
       gradientUnits="userSpaceOnUse"
       gradientTransform="matrix(-0.603882,39.252331,39.252331,0.603882,148.94836,338.89191)"
       spreadMethod="pad"
       id="linearGradient898"><stop
         style="stop-opacity:1;stop-color:#ff4600"
         offset="0"
         id="stop894" /><stop
         style="stop-opacity:1;stop-color:#ff4600"
         offset="1"
         id="stop896" /></linearGradient><clipPath
       clipPathUnits="userSpaceOnUse"
       id="clipPath928"><path
         d="m 124.75,352.939 c 2.592,-6.693 9.031,-11.104 16.208,-11.104 v 0 c 8.284,0 15.73,5.051 18.793,12.748 v 0 c 0,0 -1.466,-3.045 -3.53,-4.474 v 0 c -1.867,-1.293 -4.3,-1.153 -5.212,1.737 v 0 l -11.751,31.899 -47.231,53.681 z"
         id="path926" /></clipPath><linearGradient
       x1="0"
       y1="0"
       x2="1"
       y2="0"
       gradientUnits="userSpaceOnUse"
       gradientTransform="matrix(17.737101,-88.363014,-88.363014,-17.737101,111.83015,466.04266)"
       spreadMethod="pad"
       id="linearGradient938"><stop
         style="stop-opacity:1;stop-color:#ff4600"
         offset="0"
         id="stop934" /><stop
         style="stop-opacity:1;stop-color:#ffb800"
         offset="1"
         id="stop936" /></linearGradient><clipPath
       clipPathUnits="userSpaceOnUse"
       id="clipPath948"><path
         d="M 0,500 H 500 V 0 H 0 Z"
         id="path946" /></clipPath><clipPath
       clipPathUnits="userSpaceOnUse"
       id="clipPath956"><path
         d="m 103.19,423.977 h 25.346 V 398.631 H 103.19 Z"
         id="path954" /></clipPath><clipPath
       clipPathUnits="userSpaceOnUse"
       id="clipPath960"><path
         d="m 128.536,411.304 c 0,-6.999 -5.674,-12.673 -12.673,-12.673 -7,0 -12.674,5.674 -12.674,12.673 0,6.999 5.674,12.673 12.674,12.673 6.999,0 12.673,-5.674 12.673,-12.673"
         id="path958" /></clipPath><clipPath
       clipPathUnits="userSpaceOnUse"
       id="clipPath964"><path
         d="M -32768,32767 H 32767 V -32768 H -32768 Z"
         id="path962" /></clipPath><radialGradient
       fx="0"
       fy="0"
       cx="0"
       cy="0"
       r="1"
       gradientUnits="userSpaceOnUse"
       gradientTransform="matrix(12.673008,0,0,-12.673008,115.86263,411.30389)"
       spreadMethod="pad"
       id="radialGradient972"><stop
         style="stop-opacity:1;stop-color:#ffffff"
         offset="0"
         id="stop966" /><stop
         style="stop-opacity:0;stop-color:#ffffff"
         offset="0.55847514"
         id="stop968" /><stop
         style="stop-opacity:0;stop-color:#ffffff"
         offset="1"
         id="stop970" /></radialGradient><mask
       maskUnits="userSpaceOnUse"
       x="0"
       y="0"
       width="1"
       height="1"
       id="mask974"><g
         id="g984"><g
           clip-path="url(#clipPath964)"
           id="g982"><g
             id="g980"><g
               id="g978"><path
                 d="M -32768,32767 H 32767 V -32768 H -32768 Z"
                 style="fill:url(#radialGradient972);stroke:none"
                 id="path976" /></g></g></g></g></mask><radialGradient
       fx="0"
       fy="0"
       cx="0"
       cy="0"
       r="1"
       gradientUnits="userSpaceOnUse"
       gradientTransform="matrix(12.673008,0,0,-12.673008,115.86263,411.30389)"
       spreadMethod="pad"
       id="radialGradient992"><stop
         style="stop-opacity:1;stop-color:#fff379"
         offset="0"
         id="stop986" /><stop
         style="stop-opacity:1;stop-color:#fff379"
         offset="0.55847514"
         id="stop988" /><stop
         style="stop-opacity:1;stop-color:#fff379"
         offset="1"
         id="stop990" /></radialGradient><clipPath
       clipPathUnits="userSpaceOnUse"
       id="clipPath1018"><path
         d="m 101.126,426.209 h 12.64 v -12.64 h -12.64 z"
         id="path1016" /></clipPath><clipPath
       clipPathUnits="userSpaceOnUse"
       id="clipPath1022"><path
         d="m 113.766,419.889 c 0,-3.491 -2.829,-6.32 -6.32,-6.32 -3.49,0 -6.32,2.829 -6.32,6.32 0,3.49 2.83,6.32 6.32,6.32 3.491,0 6.32,-2.83 6.32,-6.32"
         id="path1020" /></clipPath><clipPath
       clipPathUnits="userSpaceOnUse"
       id="clipPath1026"><path
         d="M -32768,32767 H 32767 V -32768 H -32768 Z"
         id="path1024" /></clipPath><radialGradient
       fx="0"
       fy="0"
       cx="0"
       cy="0"
       r="1"
       gradientUnits="userSpaceOnUse"
       gradientTransform="matrix(6.3201313,0,0,-6.3201313,107.44609,419.88889)"
       spreadMethod="pad"
       id="radialGradient1034"><stop
         style="stop-opacity:1;stop-color:#ffffff"
         offset="0"
         id="stop1028" /><stop
         style="stop-opacity:0;stop-color:#ffffff"
         offset="0.55847514"
         id="stop1030" /><stop
         style="stop-opacity:0;stop-color:#ffffff"
         offset="1"
         id="stop1032" /></radialGradient><mask
       maskUnits="userSpaceOnUse"
       x="0"
       y="0"
       width="1"
       height="1"
       id="mask1036"><g
         id="g1046"><g
           clip-path="url(#clipPath1026)"
           id="g1044"><g
             id="g1042"><g
               id="g1040"><path
                 d="M -32768,32767 H 32767 V -32768 H -32768 Z"
                 style="fill:url(#radialGradient1034);stroke:none"
                 id="path1038" /></g></g></g></g></mask><radialGradient
       fx="0"
       fy="0"
       cx="0"
       cy="0"
       r="1"
       gradientUnits="userSpaceOnUse"
       gradientTransform="matrix(6.3201313,0,0,-6.3201313,107.44609,419.88889)"
       spreadMethod="pad"
       id="radialGradient1054"><stop
         style="stop-opacity:1;stop-color:#fff379"
         offset="0"
         id="stop1048" /><stop
         style="stop-opacity:1;stop-color:#fff379"
         offset="0.55847514"
         id="stop1050" /><stop
         style="stop-opacity:1;stop-color:#fff379"
         offset="1"
         id="stop1052" /></radialGradient><clipPath
       clipPathUnits="userSpaceOnUse"
       id="clipPath1092"><path
         d="M 0,500 H 500 V 0 H 0 Z"
         id="path1090" /></clipPath><clipPath
       clipPathUnits="userSpaceOnUse"
       id="clipPath1100"><path
         d="m 323.09,449.527 h 50.421 V 408.699 H 323.09 Z"
         id="path1098" /></clipPath><clipPath
       clipPathUnits="userSpaceOnUse"
       id="clipPath1116"><path
         d="M 276.602,450.452 H 419.696 V 338.381 H 276.602 Z"
         id="path1114" /></clipPath><clipPath
       clipPathUnits="userSpaceOnUse"
       id="clipPath1140"><path
         d="m 382.67,450.452 -34.242,-55.736 -34.243,55.736 h -34.243 l 65.033,-105.854 c 1.582,-2.574 5.323,-2.574 6.905,0 v 0 l 65.033,105.854 z"
         id="path1138" /></clipPath><linearGradient
       x1="0"
       y1="0"
       x2="1"
       y2="0"
       gradientUnits="userSpaceOnUse"
       gradientTransform="matrix(0,92.942314,92.942314,0,348.42758,307.03659)"
       spreadMethod="pad"
       id="linearGradient1150"><stop
         style="stop-opacity:1;stop-color:#ff4600"
         offset="0"
         id="stop1146" /><stop
         style="stop-opacity:1;stop-color:#ffb800"
         offset="1"
         id="stop1148" /></linearGradient><clipPath
       clipPathUnits="userSpaceOnUse"
       id="clipPath1160"><path
         d="m 279.942,450.452 33.903,-55.185 c 9.048,2.643 18.867,5.5 29.05,8.455 v 0 l -28.71,46.73 z"
         id="path1158" /></clipPath><linearGradient
       x1="0"
       y1="0"
       x2="1"
       y2="0"
       gradientUnits="userSpaceOnUse"
       gradientTransform="matrix(-15.100612,64.786491,64.786491,15.100612,325.35498,367.29318)"
       spreadMethod="pad"
       id="linearGradient1170"><stop
         style="stop-opacity:1;stop-color:#ff4600"
         offset="0"
         id="stop1166" /><stop
         style="stop-opacity:1;stop-color:#ffb800"
         offset="1"
         id="stop1168" /></linearGradient><clipPath
       clipPathUnits="userSpaceOnUse"
       id="clipPath1180"><path
         d="m 382.67,450.452 -26.311,-42.828 c 13.872,4.018 28.071,8.118 41.633,12.029 v 0 l 18.921,30.799 z"
         id="path1178" /></clipPath><linearGradient
       x1="0"
       y1="0"
       x2="1"
       y2="0"
       gradientUnits="userSpaceOnUse"
       gradientTransform="matrix(-15.100612,64.786491,64.786491,15.100612,397.12848,384.02234)"
       spreadMethod="pad"
       id="linearGradient1190"><stop
         style="stop-opacity:1;stop-color:#ff4600"
         offset="0"
         id="stop1186" /><stop
         style="stop-opacity:1;stop-color:#ffb800"
         offset="1"
         id="stop1188" /></linearGradient><clipPath
       clipPathUnits="userSpaceOnUse"
       id="clipPath1200"><path
         d="M 0,500 H 500 V 0 H 0 Z"
         id="path1198" /></clipPath><clipPath
       clipPathUnits="userSpaceOnUse"
       id="clipPath1216"><path
         d="m 313.496,414.449 h 30.987 v -30.987 h -30.987 z"
         id="path1214" /></clipPath><clipPath
       clipPathUnits="userSpaceOnUse"
       id="clipPath1220"><path
         d="m 344.483,398.955 c 0,-8.557 -6.937,-15.493 -15.493,-15.493 -8.557,0 -15.494,6.936 -15.494,15.493 0,8.557 6.937,15.494 15.494,15.494 8.556,0 15.493,-6.937 15.493,-15.494"
         id="path1218" /></clipPath><clipPath
       clipPathUnits="userSpaceOnUse"
       id="clipPath1224"><path
         d="M -32768,32767 H 32767 V -32768 H -32768 Z"
         id="path1222" /></clipPath><radialGradient
       fx="0"
       fy="0"
       cx="0"
       cy="0"
       r="1"
       gradientUnits="userSpaceOnUse"
       gradientTransform="matrix(15.493411,0,0,-15.493411,328.98972,398.9552)"
       spreadMethod="pad"
       id="radialGradient1232"><stop
         style="stop-opacity:1;stop-color:#ffffff"
         offset="0"
         id="stop1226" /><stop
         style="stop-opacity:0;stop-color:#ffffff"
         offset="0.55847514"
         id="stop1228" /><stop
         style="stop-opacity:0;stop-color:#ffffff"
         offset="1"
         id="stop1230" /></radialGradient><mask
       maskUnits="userSpaceOnUse"
       x="0"
       y="0"
       width="1"
       height="1"
       id="mask1234"><g
         id="g1244"><g
           clip-path="url(#clipPath1224)"
           id="g1242"><g
             id="g1240"><g
               id="g1238"><path
                 d="M -32768,32767 H 32767 V -32768 H -32768 Z"
                 style="fill:url(#radialGradient1232);stroke:none"
                 id="path1236" /></g></g></g></g></mask><radialGradient
       fx="0"
       fy="0"
       cx="0"
       cy="0"
       r="1"
       gradientUnits="userSpaceOnUse"
       gradientTransform="matrix(15.493411,0,0,-15.493411,328.98972,398.9552)"
       spreadMethod="pad"
       id="radialGradient1252"><stop
         style="stop-opacity:1;stop-color:#fff379"
         offset="0"
         id="stop1246" /><stop
         style="stop-opacity:1;stop-color:#fff379"
         offset="0.55847514"
         id="stop1248" /><stop
         style="stop-opacity:1;stop-color:#fff379"
         offset="1"
         id="stop1250" /></radialGradient><clipPath
       clipPathUnits="userSpaceOnUse"
       id="clipPath1278"><path
         d="m 339.174,403.969 h 18.508 v -18.508 h -18.508 z"
         id="path1276" /></clipPath><clipPath
       clipPathUnits="userSpaceOnUse"
       id="clipPath1282"><path
         d="m 357.682,394.715 c 0,-5.111 -4.143,-9.254 -9.254,-9.254 -5.111,0 -9.255,4.143 -9.255,9.254 0,5.111 4.144,9.254 9.255,9.254 5.111,0 9.254,-4.143 9.254,-9.254"
         id="path1280" /></clipPath><clipPath
       clipPathUnits="userSpaceOnUse"
       id="clipPath1286"><path
         d="M -32768,32767 H 32767 V -32768 H -32768 Z"
         id="path1284" /></clipPath><radialGradient
       fx="0"
       fy="0"
       cx="0"
       cy="0"
       r="1"
       gradientUnits="userSpaceOnUse"
       gradientTransform="matrix(9.2540092,0,0,-9.2540092,348.42755,394.71536)"
       spreadMethod="pad"
       id="radialGradient1294"><stop
         style="stop-opacity:1;stop-color:#ffffff"
         offset="0"
         id="stop1288" /><stop
         style="stop-opacity:0;stop-color:#ffffff"
         offset="0.55847514"
         id="stop1290" /><stop
         style="stop-opacity:0;stop-color:#ffffff"
         offset="1"
         id="stop1292" /></radialGradient><mask
       maskUnits="userSpaceOnUse"
       x="0"
       y="0"
       width="1"
       height="1"
       id="mask1296"><g
         id="g1306"><g
           clip-path="url(#clipPath1286)"
           id="g1304"><g
             id="g1302"><g
               id="g1300"><path
                 d="M -32768,32767 H 32767 V -32768 H -32768 Z"
                 style="fill:url(#radialGradient1294);stroke:none"
                 id="path1298" /></g></g></g></g></mask><radialGradient
       fx="0"
       fy="0"
       cx="0"
       cy="0"
       r="1"
       gradientUnits="userSpaceOnUse"
       gradientTransform="matrix(9.2540092,0,0,-9.2540092,348.42755,394.71536)"
       spreadMethod="pad"
       id="radialGradient1314"><stop
         style="stop-opacity:1;stop-color:#fff379"
         offset="0"
         id="stop1308" /><stop
         style="stop-opacity:1;stop-color:#fff379"
         offset="0.55847514"
         id="stop1310" /><stop
         style="stop-opacity:1;stop-color:#fff379"
         offset="1"
         id="stop1312" /></radialGradient></defs><g
     inkscape:label="Layer 1"
     inkscape:groupmode="layer"
     id="layer1" /><g
     id="g1086"
     transform="matrix(0.35277776,0,0,-0.35277778,-47.582857,243.70889)"><g
       id="g1088"
       clip-path="url(#clipPath1092)"><g
         id="g1094"><g
           id="g1096" /><g
           id="g1108"><g
             clip-path="url(#clipPath1100)"
             opacity="0.399994"
             id="g1106"><g
               transform="translate(348.4277,408.6992)"
               id="g1104"><path
                 d="m 0,0 -25.337,40.828 h 50.42 z"
                 style="fill:#0c173e;fill-opacity:1;fill-rule:nonzero;stroke:none"
                 id="path1102" /></g></g></g></g><g
         id="g1110"><g
           id="g1112" /><g
           id="g1124"><g
             clip-path="url(#clipPath1116)"
             opacity="0.399994"
             id="g1122"><g
               transform="translate(348.4277,390.4287)"
               id="g1120"><path
                 d="m 0,0 -36.876,60.023 h -34.95 l 68.373,-110.14 c 1.582,-2.574 5.324,-2.574 6.905,0 L 71.269,60.023 H 36.876 Z"
                 style="fill:#0c173e;fill-opacity:1;fill-rule:nonzero;stroke:none"
                 id="path1118" /></g></g></g></g><g
         id="g1126"
         transform="translate(348.4277,412.9858)"><path
           d="m 0,0 -22.45,36.541 h 44.9 z"
           style="fill:#ff4600;fill-opacity:1;fill-rule:nonzero;stroke:none"
           id="path1128" /></g><g
         id="g1130"
         transform="translate(348.4277,412.9858)"><path
           d="M 0,0 -22.45,36.541 0,3.663 22.45,36.541 Z"
           style="fill:#a82d04;fill-opacity:1;fill-rule:nonzero;stroke:none"
           id="path1132" /></g></g></g><g
     id="g1134"
     transform="matrix(0.35277776,0,0,-0.35277778,-47.582857,243.70889)"><g
       id="g1136"
       clip-path="url(#clipPath1140)"><g
         id="g1142"><g
           id="g1144"><path
             d="m 382.67,450.452 -34.242,-55.736 -34.243,55.736 h -34.243 l 65.033,-105.854 c 1.582,-2.574 5.323,-2.574 6.905,0 v 0 l 65.033,105.854 z"
             style="fill:url(#linearGradient1150);stroke:none"
             id="path1152" /></g></g></g></g><g
     id="g1154"
     transform="matrix(0.35277776,0,0,-0.35277778,-47.582857,243.70889)"><g
       id="g1156"
       clip-path="url(#clipPath1160)"><g
         id="g1162"><g
           id="g1164"><path
             d="m 279.942,450.452 33.903,-55.185 c 9.048,2.643 18.867,5.5 29.05,8.455 v 0 l -28.71,46.73 z"
             style="fill:url(#linearGradient1170);stroke:none"
             id="path1172" /></g></g></g></g><g
     id="g1174"
     transform="matrix(0.35277776,0,0,-0.35277778,-47.582857,243.70889)"><g
       id="g1176"
       clip-path="url(#clipPath1180)"><g
         id="g1182"><g
           id="g1184"><path
             d="m 382.67,450.452 -26.311,-42.828 c 13.872,4.018 28.071,8.118 41.633,12.029 v 0 l 18.921,30.799 z"
             style="fill:url(#linearGradient1190);stroke:none"
             id="path1192" /></g></g></g></g><g
     id="g1194"
     transform="matrix(0.35277776,0,0,-0.35277778,-47.582857,243.70889)"><g
       id="g1196"
       clip-path="url(#clipPath1200)"><g
         id="g1202"
         transform="translate(313.8457,395.2671)"><path
           d="M 0,0 -33.904,55.185 H 0.339 l -30.701,-2.076 z"
           style="fill:#fff379;fill-opacity:1;fill-rule:nonzero;stroke:none"
           id="path1204" /></g><g
         id="g1206"
         transform="translate(348.4277,394.7153)"><path
           d="M 0,0 34.243,55.736 H 68.486 L 35.867,53.208 Z"
           style="fill:#fff379;fill-opacity:1;fill-rule:nonzero;stroke:none"
           id="path1208" /></g><g
         id="g1210"><g
           id="g1212" /><g
           id="g1270"><g
             clip-path="url(#clipPath1216)"
             opacity="0.919998"
             id="g1268"><g
               id="g1266"><g
                 clip-path="url(#clipPath1220)"
                 id="g1264"><g
                   id="g1262"><g
                     id="g1254" /><g
                     mask="url(#mask1234)"
                     id="g1260"><g
                       id="g1258"><path
                         d="m 344.483,398.955 c 0,-8.557 -6.937,-15.493 -15.493,-15.493 -8.557,0 -15.494,6.936 -15.494,15.493 0,8.557 6.937,15.494 15.494,15.494 8.556,0 15.493,-6.937 15.493,-15.494"
                         style="fill:url(#radialGradient1252);stroke:none"
                         id="path1256" /></g></g></g></g></g></g></g></g><g
         id="g1272"><g
           id="g1274" /><g
           id="g1332"><g
             clip-path="url(#clipPath1278)"
             opacity="0.919998"
             id="g1330"><g
               id="g1328"><g
                 clip-path="url(#clipPath1282)"
                 id="g1326"><g
                   id="g1324"><g
                     id="g1316" /><g
                     mask="url(#mask1296)"
                     id="g1322"><g
                       id="g1320"><path
                         d="m 357.682,394.715 c 0,-5.111 -4.143,-9.254 -9.254,-9.254 -5.111,0 -9.255,4.143 -9.255,9.254 0,5.111 4.144,9.254 9.255,9.254 5.111,0 9.254,-4.143 9.254,-9.254"
                         style="fill:url(#radialGradient1314);stroke:none"
                         id="path1318" /></g></g></g></g></g></g></g></g></g></g><text
     xml:space="preserve"
     style="font-weight:bold;font-size:11.1015px;font-family:'Century Gothic';-inkscape-font-specification:'Century Gothic Bold';fill:#1c0030;fill-opacity:1;stroke-width:1.60142"
     x="53.878632"
     y="77.99324"
     id="text2158"
     transform="scale(0.93116169,1.0739273)"><tspan
       sodipodi:role="line"
       id="tspan2156"
       x="53.878632"
       y="77.99324"
       style="font-style:normal;font-variant:normal;font-weight:bold;font-stretch:normal;font-family:'Old English Text MT';-inkscape-font-specification:'Old English Text MT Bold';fill:#ffffff;fill-opacity:1;stroke-width:1.60142">DOCTOR</tspan></text><circle
     id="path3569"
     style="fill:#1c0030;stroke:#000000;stroke-width:0.264583"
     cx="89.499619"
     cy="69.603516"
     r="0.030280245" /><circle
     id="path3571"
     style="fill:#1c0030;stroke:#000000;stroke-width:0.264583"
     cx="80.897675"
     cy="79.781387"
     r="0.030280245" /><circle
     id="path3573"
     style="fill:#1c0030;stroke:#000000;stroke-width:0.264583"
     cx="80.897675"
     cy="79.781387"
     r="0.030280245" /><text
     xml:space="preserve"
     style="font-style:normal;font-variant:normal;font-weight:bold;font-stretch:normal;font-size:3.85365px;font-family:'Old English Text MT';-inkscape-font-specification:'Old English Text MT Bold';fill:#ffffff;fill-opacity:1;stroke-width:0.555897"
     x="49.504936"
     y="131.77066"
     id="text6069"
     transform="scale(1.0171631,0.98312648)"><tspan
       sodipodi:role="line"
       id="tspan6067"
       style="font-style:normal;font-variant:normal;font-weight:bold;font-stretch:normal;font-family:Arial;-inkscape-font-specification:'Arial Bold';stroke-width:0.555896"
       x="49.504936"
       y="131.77066">|| स्वस्य जोखिमेन मां अनुसृत्य ||</tspan></text></svg>
